# xmcd
#
# Track frame offsets: 
#        150
#        24550
#        48413
#        70090
#        91930
#        112263
#        133135
#        156976
#
# Disc length: 2326 seconds
#
# Revision: 4
# Processed by: cddbd v1.5.2PL0 Copyright (c) Steve Scherf et al.
# Submitted via: ExactAudioCopyFreeDBPlugin 1.0
#
DISCID=6d091408
DTITLE=Bobby Womack - Roads of Life
DYEAR=1978
DGENRE=Rhythm and Blues
TTITLE0=The Roads of Life
TTITLE1=How Could You Break My Heart
TTITLE2=Honey Dripper Boogie
TTITLE3=The Roots in Me
TTITLE4=What Are You Doin'
TTITLE5=Give it Up
TTITLE6=Mr. D.J. Don't Stop the Music
TTITLE7=I Honestly Love You
EXTD=YEAR: 1978
EXTT0=
EXTT1=
EXTT2=
EXTT3=
EXTT4=
EXTT5=
EXTT6=
EXTT7=
PLAYORDER=
